<?xml version="1.0" standalone="no"?>
<!DOCTYPE svg PUBLIC "-//W3C//DTD SVG 20010904//EN"
 "http://www.w3.org/TR/2001/REC-SVG-20010904/DTD/svg10.dtd">
<svg version="1.0" xmlns="http://www.w3.org/2000/svg"
 width="360.000000pt" height="360.000000pt" viewBox="0 0 360.000000 360.000000"
 preserveAspectRatio="xMidYMid meet">

<g transform="translate(0.000000,360.000000) scale(0.100000,-0.100000)"
fill="#000000" stroke="none">
<path d="M1955 3350 c11 -5 31 -9 45 -9 23 0 23 1 5 9 -11 5 -31 9 -45 9 -23
0 -23 -1 -5 -9z"/>
<path d="M1250 3339 c-62 -10 -206 -76 -254 -115 -17 -15 -55 -49 -84 -77 -44
-41 -69 -55 -146 -81 -50 -17 -118 -47 -150 -66 -77 -47 -162 -140 -200 -220
-17 -36 -48 -91 -68 -122 -55 -82 -85 -185 -98 -324 -7 -65 -18 -163 -26 -217
-8 -54 -13 -121 -13 -150 l2 -52 7 65 c8 66 38 231 43 236 2 2 18 -25 36 -59
19 -34 48 -77 65 -95 36 -39 124 -86 178 -96 29 -5 36 -10 31 -24 -8 -21 -3
-16 26 26 l23 33 -49 -7 c-136 -18 -271 125 -289 305 -12 114 30 273 98 369
19 26 48 76 65 112 40 82 125 177 189 212 27 14 90 39 141 54 85 25 97 32 160
92 37 35 85 76 108 92 57 39 151 80 184 80 16 0 53 5 82 11 30 6 72 15 94 19
34 6 30 8 -30 8 -38 0 -95 -4 -125 -9z"/>
<path d="M2100 3321 c0 -14 29 -22 57 -15 18 5 21 9 11 15 -17 11 -68 11 -68
0z"/>
<path d="M1477 3263 c-13 -13 -7 -21 13 -16 48 13 66 -4 100 -86 34 -86 55
-110 113 -130 45 -15 63 -7 21 9 -46 18 -74 50 -106 120 -38 83 -63 110 -103
110 -17 0 -35 -3 -38 -7z"/>
<path d="M2041 3257 c-28 -10 -41 -26 -78 -99 -25 -48 -55 -98 -68 -112 -24
-26 -21 -32 9 -20 21 8 72 91 87 142 13 46 47 72 91 72 80 -1 103 -38 93 -151
-8 -92 3 -135 45 -173 36 -31 38 -26 8 15 -20 27 -24 47 -29 152 -3 67 -8 129
-12 137 -18 38 -92 57 -146 37z"/>
<path d="M2323 3220 c11 -20 25 -26 68 -31 57 -7 219 -65 219 -79 0 -4 10 -10
23 -13 21 -6 20 -5 -5 18 -35 30 -177 85 -242 92 -28 4 -57 13 -65 22 -9 11
-8 8 2 -9z"/>
<path d="M1429 3068 c-1 -10 -3 -22 -4 -28 -1 -5 -3 -15 -4 -21 0 -6 -7 -9
-13 -6 -7 2 -19 -3 -25 -12 -11 -14 -14 -14 -23 -1 -7 11 -10 12 -10 2 0 -9
-8 -7 -27 8 -18 14 -30 17 -37 10 -5 -5 -15 -10 -20 -10 -6 0 -4 5 4 10 12 8
9 10 -11 10 -14 0 -47 3 -73 6 -55 8 -63 -9 -13 -30 152 -64 210 -73 268 -39
34 20 35 35 9 83 -13 24 -20 29 -21 18z m8 -90 c-3 -7 -5 -2 -5 12 0 14 2 19
5 13 2 -7 2 -19 0 -25z"/>
<path d="M1026 3038 c-10 -40 -6 -70 11 -83 11 -8 17 -31 20 -71 1 -32 0 -53
-3 -46 -8 17 -27 15 -21 -3 8 -18 -11 -11 -120 46 -103 54 -177 63 -241 30
-23 -12 -47 -31 -53 -43 -10 -18 -8 -24 9 -39 12 -9 18 -20 14 -24 -4 -5 -1
-5 5 -1 7 4 22 2 34 -4 11 -7 23 -9 26 -6 3 3 -11 13 -31 22 -44 22 -45 36 -3
66 52 37 120 30 245 -26 57 -26 114 -53 127 -62 48 -31 109 0 73 37 -7 8 -22
34 -32 59 -10 25 -22 53 -27 62 -5 10 -9 38 -9 63 0 48 -14 60 -24 23z"/>
<path d="M2760 2989 c0 -8 13 -30 28 -49 16 -19 32 -44 36 -54 5 -14 10 -16
17 -9 16 16 -20 77 -63 112 -15 11 -18 11 -18 0z"/>
<path d="M2568 2922 c-64 -59 -87 -72 -127 -72 -34 0 -49 -15 -25 -24 48 -18
106 10 170 81 39 45 41 46 87 39 35 -5 53 -15 73 -38 31 -38 29 -75 -11 -152
-56 -107 -38 -186 38 -172 21 4 56 24 83 46 35 31 53 40 83 40 56 0 75 -19 68
-64 -8 -50 -17 -59 -91 -96 -98 -50 -118 -108 -59 -172 32 -34 122 -74 206
-92 71 -14 94 -28 107 -61 8 -19 9 -19 9 3 2 53 -27 73 -132 91 -68 12 -172
65 -194 98 -24 36 -6 62 72 108 74 44 102 73 111 121 5 24 0 37 -19 60 -22 25
-32 29 -74 28 -39 0 -59 -8 -109 -42 -34 -23 -71 -42 -83 -42 -32 0 -28 63 10
147 51 113 41 165 -40 199 -62 26 -94 19 -153 -34z"/>
<path d="M1628 2913 c7 -3 16 -2 19 1 4 3 -2 6 -13 5 -11 0 -14 -3 -6 -6z"/>
<path d="M1945 2881 c3 -5 29 -17 58 -27 28 -9 78 -30 109 -45 58 -29 88 -36
88 -20 0 14 -212 101 -247 101 -8 0 -12 -4 -8 -9z"/>
<path d="M1369 2857 c-61 -26 -79 -37 -132 -84 -46 -40 -48 -53 -4 -20 17 14
77 48 132 76 102 52 105 69 4 28z"/>
<path d="M2880 2867 c0 -3 22 -13 48 -21 27 -9 68 -30 90 -47 26 -19 40 -25
36 -15 -8 22 -101 77 -141 83 -18 3 -33 3 -33 0z"/>
<path d="M720 2786 c0 -2 7 -7 16 -10 8 -3 12 -2 9 4 -6 10 -25 14 -25 6z"/>
<path d="M780 2755 c6 -8 25 -17 42 -20 23 -5 27 -9 17 -16 -11 -7 -9 -9 8 -9
22 0 88 -48 79 -58 -3 -3 -1 -11 5 -19 9 -10 8 -13 -2 -13 -11 0 -11 -2 -1 -8
26 -17 2 -40 -45 -44 -56 -4 -67 8 -13 17 32 5 37 9 27 20 -7 8 -13 9 -16 3
-2 -6 -6 -5 -11 2 -6 9 -14 8 -33 -5 -15 -9 -31 -14 -37 -10 -15 9 -74 -5 -63
-15 4 -5 19 -10 33 -13 14 -2 -2 -5 -35 -5 -64 0 -82 -3 -102 -15 -7 -5 -17
-5 -23 -2 -5 3 -10 2 -10 -3 0 -6 -16 -13 -35 -16 -20 -4 -35 -13 -35 -21 0
-7 -11 -22 -24 -32 -59 -47 -86 -142 -48 -175 9 -9 33 -21 53 -28 31 -11 46
-10 100 5 85 24 203 30 254 13 72 -23 90 -101 50 -213 -5 -16 -5 -17 4 -5 9
13 11 12 11 -4 0 -10 -24 -43 -54 -72 -34 -34 -61 -71 -72 -101 -10 -27 -22
-51 -27 -54 -5 -4 -13 -25 -17 -48 -7 -37 -5 -44 18 -61 32 -25 45 -25 37 0
-5 14 -2 20 10 20 14 0 14 2 -1 25 -15 24 -15 29 1 83 10 31 21 59 24 62 3 3
18 21 33 42 15 20 34 42 41 50 23 23 47 102 47 154 0 136 -125 192 -319 144
-128 -31 -181 -19 -181 43 0 57 74 139 150 166 19 7 98 16 175 21 126 7 141
10 157 30 34 41 21 103 -28 134 -39 26 -158 68 -144 51z"/>
<path d="M2305 2737 c170 -93 332 -227 366 -302 12 -27 20 -80 25 -165 4 -76
10 -117 15 -105 13 34 10 126 -7 220 -17 90 -17 90 -82 158 -72 74 -192 156
-283 193 -73 30 -87 30 -34 1z"/>
<path d="M1146 2678 c-9 -12 -28 -53 -42 -91 -23 -60 -26 -79 -21 -141 12
-144 74 -280 173 -385 37 -40 85 -79 112 -92 26 -13 63 -33 82 -45 61 -40 180
-85 213 -82 28 3 19 8 -63 41 -52 20 -141 62 -198 94 -98 54 -105 60 -169 147
-36 50 -80 120 -97 156 -28 59 -31 74 -31 165 0 95 2 104 37 178 35 73 37 103
4 55z"/>
<path d="M3145 2637 c12 -34 26 -83 29 -109 11 -72 30 -61 23 12 -3 39 -14 76
-31 104 -39 66 -46 64 -21 -7z"/>
<path d="M1647 2669 c7 -7 15 -10 18 -7 3 3 -2 9 -12 12 -14 6 -15 5 -6 -5z"/>
<path d="M2041 2596 c33 -17 63 -24 130 -31 30 -3 71 -8 91 -10 20 -3 39 -1
43 4 3 5 -16 13 -42 16 -27 4 -83 13 -127 21 -43 8 -88 14 -100 14 -19 0 -19
-1 5 -14z"/>
<path d="M1545 2575 c-5 -2 -31 -6 -58 -10 -93 -12 -35 -22 110 -18 149 4 231
-7 240 -34 2 -6 -6 -21 -19 -33 -21 -21 -60 -40 -260 -133 -38 -17 -68 -34
-68 -38 0 -5 19 1 43 11 23 11 52 20 65 20 28 0 29 -29 6 -115 -32 -117 -35
-138 -25 -148 11 -11 11 -11 41 143 29 145 26 139 72 146 31 6 54 20 104 69
35 34 64 69 64 78 0 26 -39 44 -117 56 -68 10 -176 14 -198 6z"/>
<path d="M1967 2475 c-34 -53 -35 -121 -2 -139 11 -6 24 -16 30 -22 26 -29
160 -46 194 -25 14 9 11 10 -122 26 -23 3 -57 14 -75 25 -26 16 -32 26 -32 55
0 36 28 105 42 105 4 0 8 5 8 10 0 21 -16 8 -43 -35z"/>
<path d="M2140 2499 c68 -11 143 -47 159 -78 6 -10 7 -29 4 -42 -4 -17 -2 -21
5 -14 6 6 14 22 17 36 13 53 -62 95 -186 104 l-64 4 65 -10z"/>
<path d="M3200 2467 c0 -3 16 -36 37 -73 30 -56 37 -78 39 -138 2 -39 9 -101
16 -138 12 -66 6 -107 -38 -278 -6 -24 -6 -24 8 -5 15 20 40 85 54 140 13 48
23 -124 13 -220 -5 -44 -13 -129 -19 -190 -6 -60 -22 -166 -36 -235 -14 -69
-36 -176 -48 -238 -13 -62 -28 -118 -34 -124 -7 -7 -12 -20 -12 -30 0 -26 -40
-58 -72 -58 -31 0 -34 8 -29 90 4 61 -7 46 -19 -24 -19 -115 -81 -186 -162
-186 -41 0 -53 8 -63 39 -5 18 -9 20 -16 10 -5 -8 -9 -26 -9 -40 0 -59 -27
-96 -97 -136 -67 -37 -70 -38 -173 -38 -103 1 -106 1 -172 38 -65 37 -67 39
-73 85 -10 78 -13 80 -14 10 -1 -59 -5 -71 -34 -109 -49 -65 -108 -91 -222
-97 -171 -9 -321 30 -396 103 -47 45 -48 58 -35 290 l5 100 -14 -90 c-7 -49
-17 -134 -21 -188 -4 -55 -10 -94 -14 -87 -5 8 -19 8 -54 -1 -60 -15 -240 -6
-288 14 -18 8 -47 28 -63 46 -17 17 -37 31 -45 31 -19 1 -65 38 -57 47 4 3 -2
14 -13 23 -11 9 -25 41 -31 71 -9 43 -13 50 -20 34 -4 -11 -8 -34 -8 -51 -1
-32 -1 -32 -41 -23 -60 14 -167 56 -224 89 -91 52 -142 112 -182 211 -13 35
-29 73 -33 84 -5 11 -13 36 -19 55 l-10 35 -1 -49 -1 -49 -42 6 c-32 4 -49 14
-70 39 -15 18 -28 29 -28 24 0 -5 -11 11 -24 35 -13 25 -28 54 -34 64 -6 11
-23 51 -37 89 -25 64 -27 78 -22 181 3 62 1 118 -4 126 -5 8 -9 -60 -9 -169 0
-171 1 -184 19 -189 10 -2 26 -21 35 -41 30 -63 84 -138 113 -158 15 -10 50
-23 76 -29 47 -10 49 -12 72 -70 34 -83 71 -132 138 -183 66 -50 223 -118 302
-130 42 -7 59 -15 84 -44 54 -62 179 -137 252 -151 71 -13 237 -15 284 -3 25
6 37 2 70 -24 77 -61 200 -95 345 -94 134 1 195 21 270 89 l61 54 52 -32 c48
-28 61 -31 158 -35 98 -4 110 -2 161 22 58 27 116 77 143 123 15 25 21 28 60
25 57 -5 124 26 160 74 17 23 34 34 51 34 42 0 104 37 104 63 0 12 16 78 35
147 78 276 101 421 116 713 10 184 9 233 -1 252 -7 13 -10 34 -7 46 4 15 -2
36 -15 57 -15 24 -23 61 -29 123 -9 98 -32 161 -73 198 -14 14 -26 22 -26 18z"/>
<path d="M1774 2306 c46 -43 76 -58 76 -37 0 8 -27 27 -100 69 -14 8 -3 -6 24
-32z"/>
<path d="M1444 2284 c-18 -14 -18 -14 6 -3 31 14 36 19 24 19 -6 0 -19 -7 -30
-16z"/>
<path d="M1947 2246 c-52 -15 -80 -33 -71 -47 3 -5 18 1 34 12 26 20 37 21
152 16 195 -8 278 -44 278 -123 0 -61 -48 -120 -135 -167 -45 -24 -12 -20 41
5 51 23 98 80 113 136 12 42 -6 93 -41 116 -80 52 -275 80 -371 52z"/>
<path d="M1796 2144 c-10 -52 -19 -118 -20 -147 l-1 -52 55 -17 c30 -10 93
-20 140 -23 81 -4 82 -4 30 6 -30 6 -84 15 -120 20 -102 15 -98 9 -74 151 12
68 25 131 29 141 5 11 3 17 -7 17 -10 0 -20 -28 -32 -96z"/>
<path d="M2033 2140 c-32 -57 -42 -60 -135 -34 -44 13 -62 14 -70 6 -13 -13
-12 -14 81 -37 36 -8 67 -17 69 -19 2 -3 -1 -13 -7 -24 -14 -26 -14 -42 -1
-42 5 0 17 14 26 31 l16 32 81 -5 c45 -3 69 -3 52 -1 -16 3 -34 8 -40 13 -5 4
-24 11 -42 14 l-31 7 24 42 c13 23 24 48 24 55 0 26 -20 10 -47 -38z"/>
<path d="M2823 2092 c-23 -17 -22 -17 30 -14 46 3 66 -2 138 -36 110 -52 167
-49 182 8 7 26 -5 26 -21 0 -18 -30 -62 -25 -174 20 -112 45 -124 47 -155 22z"/>
<path d="M2780 2012 c0 -23 14 -43 66 -93 111 -109 149 -221 104 -309 -29 -56
-35 -54 -98 32 -48 65 -81 92 -173 142 -76 41 -88 43 -119 18 l-23 -18 43
-125 c63 -186 64 -256 3 -337 -19 -25 -31 -32 -51 -30 -22 2 -32 14 -56 63
-16 33 -39 99 -52 147 -13 47 -37 109 -54 137 -51 83 -132 117 -151 63 -7 -20
-6 -21 10 -13 14 8 25 4 50 -21 18 -17 39 -45 46 -62 8 -17 19 -38 24 -46 16
-27 39 -84 58 -145 10 -33 23 -64 29 -70 6 -5 18 -22 27 -37 25 -40 79 -39
128 1 43 36 75 121 64 173 -10 51 -65 210 -81 235 -17 28 -20 63 -3 46 9 -9
15 -8 26 3 17 17 47 19 37 2 -4 -6 -3 -8 4 -4 6 3 13 2 17 -4 3 -5 16 -10 28
-10 13 0 26 -9 32 -22 6 -12 23 -29 39 -38 34 -17 67 -47 64 -57 -1 -3 9 -21
22 -38 48 -63 120 -34 147 60 24 80 -27 197 -123 282 -35 31 -64 64 -64 74 0
10 -4 21 -10 24 -6 4 -10 -6 -10 -23z m-170 -216 c0 -3 -4 -8 -10 -11 -5 -3
-10 -1 -10 4 0 6 5 11 10 11 6 0 10 -2 10 -4z m135 -76 c3 -5 1 -10 -4 -10 -6
0 -11 5 -11 10 0 6 2 10 4 10 3 0 8 -4 11 -10z m-390 -94 c26 -44 60 -155 50
-164 -3 -3 -5 1 -5 9 0 8 -12 39 -27 69 -14 30 -27 60 -27 65 -1 6 -9 25 -19
44 -27 48 -2 28 28 -23z"/>
<path d="M202 1865 c0 -16 2 -22 5 -12 2 9 2 23 0 30 -3 6 -5 -1 -5 -18z"/>
<path d="M1089 1835 c-103 -68 -126 -85 -113 -85 6 0 43 23 83 51 87 61 129
71 161 39 12 -12 25 -19 28 -15 4 3 2 9 -4 13 -5 4 -9 14 -9 22 0 8 -4 18 -10
22 -23 17 -57 5 -136 -47z"/>
<path d="M542 1795 c-6 -22 -12 -51 -11 -65 l0 -25 11 25 c10 25 10 25 18 4
10 -24 28 -39 37 -30 4 3 -3 16 -15 29 -12 12 -22 39 -24 62 l-3 40 -13 -40z"/>
<path d="M1740 1811 c0 -11 16 -16 94 -30 33 -6 64 -7 68 -3 5 5 37 3 71 -5
34 -7 89 -13 121 -13 33 0 74 -5 91 -11 23 -9 42 -9 71 -1 l39 11 -51 -1 c-27
-1 -54 1 -60 4 -5 3 -47 9 -94 13 -47 4 -137 15 -200 26 -132 21 -150 23 -150
10z"/>
<path d="M1288 1765 c-10 -11 17 -54 37 -60 11 -4 15 -8 10 -11 -17 -7 -6 -74
11 -67 15 6 17 60 4 103 -7 24 -8 24 -16 5 -8 -19 -8 -19 -14 4 -6 24 -21 37
-32 26z"/>
<path d="M1714 1761 c-24 -10 -80 -78 -72 -87 3 -3 20 9 39 25 18 17 36 28 40
25 4 -2 12 4 18 13 6 10 11 13 11 7 0 -6 22 -16 50 -24 40 -11 52 -20 66 -48
19 -41 31 -35 16 7 -14 38 -2 40 20 4 l17 -28 1 27 c0 57 -137 109 -206 79z"/>
<path d="M3199 1753 c-13 -16 -12 -17 4 -4 16 13 21 21 13 21 -2 0 -10 -8 -17
-17z"/>
<path d="M3135 1700 c-3 -5 -2 -10 4 -10 5 0 13 5 16 10 3 6 2 10 -4 10 -5 0
-13 -4 -16 -10z"/>
<path d="M649 1641 c64 -64 125 -85 246 -84 50 1 96 3 104 5 16 3 34 -65 20
-79 -4 -4 -10 -26 -14 -48 l-6 -40 17 30 c23 41 24 42 34 25 16 -27 23 -1 10
42 -6 24 -14 55 -17 70 l-5 27 -132 -5 -131 -6 -55 31 c-31 16 -67 42 -80 56
-13 14 -27 25 -32 25 -4 0 14 -22 41 -49z"/>
<path d="M3106 1648 c-3 -13 -5 -43 -5 -68 1 -41 2 -39 10 20 8 66 6 89 -5 48z"/>
<path d="M521 1644 c0 -11 3 -14 6 -6 3 7 2 16 -1 19 -3 4 -6 -2 -5 -13z"/>
<path d="M2153 1594 c-7 -23 -13 -54 -13 -70 0 -66 -29 -217 -49 -255 -23 -44
-21 -60 4 -39 32 27 83 288 73 376 -3 28 -3 28 -15 -12z"/>
<path d="M1882 1606 c1 -10 8 -17 13 -17 15 1 12 24 -3 29 -9 3 -13 -2 -10
-12z"/>
<path d="M512 1590 c0 -14 2 -19 5 -12 2 6 2 18 0 25 -3 6 -5 1 -5 -13z"/>
<path d="M3051 1559 c-7 -12 -10 -23 -8 -26 3 -3 11 5 17 17 15 28 8 35 -9 9z"/>
<path d="M1332 1550 c0 -14 2 -19 5 -12 2 6 2 18 0 25 -3 6 -5 1 -5 -13z"/>
<path d="M3096 1367 c-4 -83 -10 -167 -13 -186 -4 -22 -2 -32 5 -27 17 10 38
351 22 361 -4 2 -10 -64 -14 -148z"/>
<path d="M1326 1484 c-4 -9 -5 -17 -4 -18 2 -1 13 -7 25 -13 30 -17 43 -16 43
2 0 14 -12 19 -32 16 -5 0 -8 6 -8 14 0 20 -16 19 -24 -1z"/>
<path d="M1080 1412 c0 -14 42 -98 63 -124 8 -10 19 -18 25 -18 6 0 17 -8 24
-17 20 -28 45 -44 70 -48 13 -2 42 -11 65 -19 31 -12 49 -13 68 -6 15 6 42 10
62 10 34 0 106 33 146 68 16 14 17 13 17 -18 0 -32 1 -33 15 -14 16 21 15 21
56 -41 38 -59 112 -131 140 -138 13 -3 49 -13 79 -22 45 -13 68 -14 125 -5 88
14 138 37 198 96 45 44 47 45 47 21 0 -14 5 -29 10 -32 6 -3 10 3 10 14 0 26
30 28 65 5 19 -12 45 -15 117 -12 82 3 102 7 161 36 67 33 121 78 153 128 31
46 7 35 -53 -24 -69 -70 -116 -96 -201 -112 -120 -24 -218 2 -232 61 l-6 24
-24 -26 c-14 -15 -40 -43 -59 -64 -19 -21 -59 -49 -90 -64 -77 -36 -211 -37
-284 -2 -101 47 -177 151 -177 240 0 30 -1 31 -22 20 -13 -7 -44 -31 -69 -55
-50 -45 -89 -60 -184 -70 -109 -10 -202 42 -273 156 -23 36 -41 59 -42 52z"/>
<path d="M1961 1380 c0 -14 4 -32 9 -40 8 -12 10 -12 9 5 0 11 -4 29 -9 40 -8
18 -9 18 -9 -5z"/>
<path d="M2883 1368 c-12 -6 -24 -16 -27 -24 -3 -8 8 -5 30 8 47 28 45 39 -3
16z"/>
<path d="M987 1288 c-9 -114 -9 -160 2 -154 8 5 16 236 8 236 -2 0 -7 -37 -10
-82z"/>
<path d="M2010 1230 c0 -5 5 -10 11 -10 5 0 7 5 4 10 -3 6 -8 10 -11 10 -2 0
-4 -4 -4 -10z"/>
<path d="M3082 1124 c-1 -12 -5 -37 -8 -55 -4 -28 -3 -31 6 -16 6 9 9 34 7 55
-2 20 -4 27 -5 16z"/>
<path d="M982 1080 c0 -14 2 -19 5 -12 2 6 2 18 0 25 -3 6 -5 1 -5 -13z"/>
<path d="M2823 1040 c0 -25 2 -35 4 -22 2 12 2 32 0 45 -2 12 -4 2 -4 -23z"/>
<path d="M973 1000 c0 -25 2 -35 4 -22 2 12 2 32 0 45 -2 12 -4 2 -4 -23z"/>
<path d="M2278 961 c-2 -43 0 -92 3 -107 4 -16 7 19 8 79 0 59 -1 107 -3 107
-3 0 -6 -36 -8 -79z"/>
<path d="M2822 955 c0 -16 2 -22 5 -12 2 9 2 23 0 30 -3 6 -5 -1 -5 -18z"/>
</g>
</svg>
